<?xml version="1.0" encoding="UTF-8"?> <svg xmlns="http://www.w3.org/2000/svg" xmlns:xlink="http://www.w3.org/1999/xlink" width="130px" height="130px" viewBox="0 0 130 130"><!-- Generator: Sketch 58 (84663) - https://sketch.com --><title>Facebook app Icon</title><desc>Created with Sketch.</desc><g id="What-We-Build" stroke="none" stroke-width="1" fill="none" fill-rule="evenodd"><g id="D_FB_Tech_Facebook" transform="translate(-215.000000, -242.000000)" fill="#FFFFFF"><g id="Hero"><g id="Logo" transform="translate(123.000000, 228.000000)"><path d="M222,79.3972371 C222,43.2793138 192.898535,14 157,14 C121.101465,14 92,43.2793138 92,79.3972371 C92,112.038889 115.769561,139.09393 146.84375,144 L146.84375,98.301126 L130.339844,98.301126 L130.339844,79.3972371 L146.84375,79.3972371 L146.84375,64.9894083 C146.84375,48.5992258 156.547793,39.5457958 171.395215,39.5457958 C178.506748,39.5457958 185.945312,40.8230855 185.945312,40.8230855 L185.945312,56.9169369 L177.748965,56.9169369 C169.674365,56.9169369 167.15625,61.9580165 167.15625,67.1297628 L167.15625,79.3972371 L185.183594,79.3972371 L182.301758,98.301126 L167.15625,98.301126 L167.15625,144 C198.230439,139.09393 222,112.038889 222,79.3972371" id="Facebook-app-Icon"></path></g></g></g></g></svg> 