<?xml version="1.0" encoding="UTF-8"?> <svg xmlns="http://www.w3.org/2000/svg" xmlns:xlink="http://www.w3.org/1999/xlink" width="189px" height="152px" viewBox="0 0 189 152"><!-- Generator: Sketch 58 (84663) - https://sketch.com --><title>Logo</title><desc>Created with Sketch.</desc><g id="What-We-Build" stroke="none" stroke-width="1" fill="none" fill-rule="evenodd"><g id="D_FB_Tech_Instagram" transform="translate(-186.000000, -231.000000)"><g id="Hero"><g id="Logo" transform="translate(123.000000, 228.000000)"><rect id="Logo-Container" x="0" y="0" width="315" height="158"></rect><path d="M155.184475,3.00073398 L160.814514,3.00073398 C169.143717,3.00937524 170.624936,3.06373143 174.491384,3.24014621 C178.748918,3.43433446 181.656661,4.11057954 184.200955,5.09946294 C186.831309,6.12153141 189.062013,7.48926449 191.285889,9.71298189 C193.509606,11.9368581 194.877339,14.1675618 195.899567,16.7979154 C196.888291,19.3422102 197.564536,22.2499529 197.758724,26.5074865 C197.944264,30.5739231 197.994792,32.0020022 197.999121,41.5331979 L197.999121,44.4658103 C197.994792,53.9968685 197.944264,55.4249476 197.758724,59.4913842 C197.564536,63.7489178 196.888291,66.6566605 195.899567,69.2009553 C194.877339,71.8313089 193.509606,74.0620126 191.285889,76.2858888 C189.062013,78.5096062 186.831309,79.8773393 184.200955,80.8995665 C181.656661,81.8882912 178.748918,82.5645362 174.491384,82.7587245 C170.424948,82.9442642 168.996869,82.994792 159.46581,82.9991213 L156.533198,82.9991213 C147.002002,82.994792 145.573923,82.9442642 141.507487,82.7587245 C137.249953,82.5645362 134.34221,81.8882912 131.797915,80.8995665 C129.167562,79.8773393 126.936858,78.5096062 124.712982,76.2858888 C122.489264,74.0620126 121.121531,71.8313089 120.099463,69.2009553 C119.11058,66.6566605 118.434334,63.7489178 118.240146,59.4913842 C118.063731,55.6249363 118.009375,54.1437167 118.000734,45.8145136 L118.000734,40.1844753 C118.009375,31.855154 118.063731,30.3739345 118.240146,26.5074865 C118.434334,22.2499529 119.11058,19.3422102 120.099463,16.7979154 C121.121531,14.1675618 122.489264,11.9368581 124.712982,9.71298189 C126.936858,7.48926449 129.167562,6.12153141 131.797915,5.09946294 C134.34221,4.11057954 137.249953,3.43433446 141.507487,3.24014621 C145.373934,3.06373143 146.855154,3.00937524 155.184475,3.00073398 L160.814514,3.00073398 Z M159.44065,10.2069101 L156.558358,10.2069101 C147.193906,10.2107885 145.85613,10.2564569 141.836003,10.4398779 C137.936042,10.6177118 135.818073,11.2693459 134.40858,11.8171378 C132.541483,12.5427635 131.208999,13.4095449 129.809352,14.8093516 C128.409545,16.2089995 127.542764,17.5414833 126.817138,19.4085803 C126.269346,20.8180726 125.617712,22.9360423 125.439878,26.8360028 C125.256457,30.8561302 125.210788,32.1939058 125.20691,41.5583579 L125.20691,44.4406503 C125.210788,53.8049649 125.256457,55.1427405 125.439878,59.1628679 C125.617712,63.0628284 126.269346,65.1807981 126.817138,66.5902904 C127.542764,68.4573874 128.409704,69.7898712 129.809352,71.1895191 C131.208999,72.5893258 132.541483,73.4561072 134.40858,74.1817329 C135.818073,74.7295248 137.936042,75.381159 141.836003,75.5589928 C145.921572,75.7454207 147.236273,75.7895425 157.025352,75.7921181 L158.973663,75.7921181 C168.762608,75.7895425 170.077452,75.7454207 174.162868,75.5589928 C178.062828,75.381159 180.180798,74.7295248 181.59029,74.1817329 C183.457387,73.4561072 184.789871,72.5893258 186.189519,71.1895191 C187.589326,69.7898712 188.456107,68.4573874 189.181733,66.5902904 C189.729525,65.1807981 190.381159,63.0628284 190.558993,59.1628679 C190.745421,55.0768368 190.789543,53.7618243 190.792118,43.9735918 L190.792118,42.0254233 C190.789543,32.2370464 190.745421,30.922034 190.558993,26.8360028 C190.381159,22.9360423 189.729525,20.8180726 189.181733,19.4085803 C188.456107,17.5414833 187.589326,16.2089995 186.189519,14.8093516 C184.789871,13.4095449 183.457387,12.5427635 181.59029,11.8171378 C180.180798,11.2693459 178.062828,10.6177118 174.162868,10.4398779 C170.14274,10.2564569 168.804965,10.2107885 159.44065,10.2069101 Z M158.499515,21.9994354 C169.821346,21.9994354 178.999435,31.1775252 178.999435,42.4995146 C178.999435,53.8213455 169.821346,62.9994354 158.499515,62.9994354 C147.177525,62.9994354 137.999435,53.8213455 137.999435,42.4995146 C137.999435,31.1775252 147.177525,21.9994354 158.499515,21.9994354 Z M158.499515,29.1924095 C151.150134,29.1924095 145.192409,35.1501336 145.192409,42.4995146 C145.192409,49.8487371 151.150134,55.8064612 158.499515,55.8064612 C165.848737,55.8064612 171.806461,49.8487371 171.806461,42.4995146 C171.806461,35.1501336 165.848737,29.1924095 158.499515,29.1924095 Z M178.999353,16.9994354 C181.760802,16.9994354 183.999435,19.2380685 183.999435,21.9995181 C183.999435,24.7609676 181.760802,26.9994354 178.999353,26.9994354 C176.238069,26.9994354 173.999435,24.7609676 173.999435,21.9995181 C173.999435,19.2380685 176.238069,16.9994354 178.999353,16.9994354 Z" id="Mask" fill="#FFFFFF"></path><path d="M208.96266,126.463156 C208.832565,129.095411 208.216277,131.154731 207.449953,132.604182 C205.965734,135.416604 202.887143,136.289518 201.580498,132.24835 C200.8702,130.046697 200.835065,126.367667 201.347847,123.295803 C201.870125,120.166285 203.324907,117.80068 205.734032,118.013278 C208.111821,118.224075 209.223799,121.115771 208.96266,126.463156 M171.990854,142.765643 C171.958566,147.233362 171.231139,151.150896 169.666126,152.288986 C167.445859,153.903658 164.465877,152.691044 165.082196,149.434099 C165.63014,146.545171 168.210322,143.5992 171.998451,140 C171.998451,140 172.005098,140.820676 171.990854,142.765643 M170.943376,126.430198 C170.809307,128.828009 170.15407,131.240242 169.439352,132.600504 C167.965541,135.414777 164.88385,136.293674 163.605477,132.244438 C162.733086,129.478843 162.940798,125.901958 163.373217,123.642968 C163.931207,120.716918 165.293609,118 167.733281,118 C170.107807,118 171.279492,120.475334 170.943376,126.430198 M147.952566,126.407774 C147.807302,128.949737 147.286616,131.072546 146.450876,132.613949 C144.93598,135.405601 141.942032,136.293486 140.623337,132.257894 C139.670632,129.345454 139.993231,125.381975 140.389405,123.23663 C140.978008,120.05467 142.449513,117.801157 144.747326,118.013888 C147.107394,118.235634 148.254414,121.118328 147.952566,126.407774 M251.154361,129.093823 C250.595059,129.093823 250.340083,129.668114 250.128974,130.628913 C249.396946,133.978036 248.627449,134.732819 247.635876,134.732819 C246.526411,134.732819 245.532096,133.077401 245.275292,129.757448 C245.07515,127.150347 245.106222,122.344529 245.361198,117.567881 C245.416945,116.587027 245.144605,115.613466 242.49249,114.658137 C241.351952,114.246105 239.690496,113.64082 238.862509,115.622582 C236.530256,121.212354 235.616364,125.651719 235.402513,127.454813 C235.389719,127.547793 235.276396,127.567848 235.254463,127.350893 C235.116465,125.905137 234.811225,123.279804 234.772841,117.764781 C234.76553,116.689124 234.537057,115.77208 233.340772,115.024589 C232.56305,114.537809 230.207949,113.67546 229.358029,114.701892 C228.62326,115.536894 227.76877,117.788482 226.884123,120.46304 C226.165803,122.634409 225.66499,124.102043 225.66499,124.102043 C225.66499,124.102043 225.674129,118.244269 225.682354,116.021851 C225.68601,115.183203 225.106602,114.906085 224.932963,114.855037 C224.146101,114.627143 222.597054,114.249752 221.938137,114.249752 C221.129343,114.249752 220.931942,114.698246 220.931942,115.354579 C220.931942,115.440267 220.802169,123.068318 220.802169,128.399203 L220.802169,129.152163 C220.35619,131.604297 218.899445,134.931543 217.318412,134.931543 C215.730981,134.931543 214.986158,133.542304 214.986158,127.18134 C214.986158,123.47488 215.097653,121.861394 215.152487,119.179544 C215.183559,117.635337 215.245704,116.448468 215.243876,116.178642 C215.230168,115.350933 213.791701,114.935255 213.125474,114.782111 C212.451021,114.627143 211.86613,114.565156 211.409184,114.592503 C210.763976,114.628966 210.30703,115.050113 210.30703,115.628051 C210.30703,115.93981 210.310685,116.526863 210.310685,116.526863 C209.479043,115.232428 208.141105,114.326324 207.250974,114.06379 C204.85292,113.358232 202.350683,113.985395 200.463495,116.607082 C198.963798,118.689117 198.059959,121.04827 197.706282,124.433856 C197.443081,126.915161 197.528073,129.425636 197.993244,131.551426 C197.433942,133.947043 196.395761,134.931543 195.260706,134.931543 C193.611131,134.931543 192.416673,132.260631 192.555585,127.640774 C192.645146,124.603409 193.259282,122.470326 193.928251,119.383736 C194.2143,118.067423 193.983085,117.380097 193.400022,116.720117 C192.868136,116.116655 191.729426,115.804897 190.095387,116.185935 C188.931088,116.457584 187.265976,116.749287 185.743432,116.971711 C185.743432,116.971711 185.833907,116.607082 185.910674,115.967157 C186.306389,112.601626 182.623403,112.875098 181.44631,113.948932 C180.746268,114.592503 180.267389,115.34911 180.087352,116.709178 C179.801304,118.867785 181.573341,119.888748 181.573341,119.888748 C180.991191,122.532313 179.565519,125.987178 178.092325,128.483068 C177.302722,129.82217 176.696811,130.815786 175.920917,131.868654 C175.917261,131.476677 175.917261,131.0847 175.913606,130.694547 C175.896242,125.132122 175.970267,120.756567 176.003167,119.179544 C176.034239,117.635337 176.098212,116.479462 176.093642,116.207812 C176.086331,115.607997 175.728999,115.376457 174.98966,115.0884 C174.335314,114.834982 173.56673,114.658137 172.762505,114.594326 C171.752654,114.515931 171.140346,115.050113 171.159538,115.680923 C171.161366,115.799427 171.161366,116.526863 171.161366,116.526863 C170.331551,115.232428 168.991785,114.326324 168.101654,114.06379 C165.7036,113.358232 163.203191,113.985395 161.314176,116.607082 C159.814478,118.689117 158.834786,121.611623 158.555135,124.411979 C158.295589,127.01908 158.344026,129.237851 158.69953,131.106578 C158.315695,132.974393 157.220852,134.931543 155.9807,134.931543 C154.396925,134.931543 153.493999,133.542304 153.493999,127.18134 C153.493999,123.47488 153.607322,121.861394 153.662155,119.179544 C153.695055,117.635337 153.7572,116.448468 153.753544,116.178642 C153.74075,115.350933 152.300456,114.935255 151.633314,114.782111 C150.933273,114.619851 150.328276,114.563333 149.864019,114.59615 C149.251711,114.643551 148.821267,115.18685 148.821267,115.591588 L148.821267,116.526863 C147.988712,115.232428 146.650773,114.326324 145.760642,114.06379 C143.362589,113.358232 140.876801,113.996334 138.975905,116.607082 C137.73484,118.308079 136.731386,120.19686 136.215951,124.373692 C136.064244,125.580616 135.998444,126.710968 136.007583,127.766571 C135.515909,130.771119 133.331706,134.225984 131.544133,134.225984 C130.49864,134.225984 129.504325,132.215052 129.504325,127.927008 C129.504325,122.215085 129.858002,114.082022 129.92106,113.299891 C129.92106,113.299891 132.176546,113.261605 132.613387,113.254313 C133.739302,113.245197 134.759206,113.270721 136.259817,113.192326 C137.011037,113.155863 137.73484,110.477658 136.959859,110.147668 C136.607096,109.994524 134.121309,109.865081 133.134306,109.843203 C132.306319,109.824971 129.999655,109.653595 129.999655,109.653595 C129.999655,109.653595 130.206195,104.2589 130.257373,103.686432 C130.297584,103.212413 129.676137,102.966288 129.321547,102.818613 C128.457005,102.455807 127.685679,102.278962 126.768132,102.094824 C125.501477,101.834114 124.926639,102.087531 124.816058,103.148603 C124.646074,104.75662 124.55834,109.473104 124.55834,109.473104 C123.629825,109.473104 120.456791,109.290789 119.530104,109.290789 C118.665562,109.290789 117.73522,112.975371 118.926935,113.02095 C120.301429,113.073821 122.694,113.1194 124.278689,113.166802 C124.278689,113.166802 124.209233,121.434778 124.209233,123.989008 C124.209233,124.257011 124.211061,124.519544 124.211061,124.772962 C123.339208,129.290723 120.264874,131.730095 120.264874,131.730095 C120.924704,128.743778 119.575799,126.49766 117.144845,124.599763 C116.251059,123.897851 114.481763,122.574245 112.5041,121.121196 C112.5041,121.121196 113.650121,120.001783 114.666369,117.748373 C115.386516,116.151295 115.417589,114.322677 113.650121,113.917939 C110.731149,113.254313 108.325784,115.380103 107.607465,117.653569 C107.051818,119.411084 107.34792,120.718281 108.438193,122.07288 C108.515874,122.17133 108.603608,122.275249 108.693169,122.375522 C108.033339,123.638964 107.130413,125.334491 106.362744,126.650804 C104.235202,130.306216 102.62858,133.194082 101.413103,133.194082 C100.441635,133.194082 100.455344,130.260637 100.455344,127.51133 C100.455344,125.143061 100.632639,121.584276 100.77155,117.897871 C100.817245,116.674538 100.203109,115.983565 99.1740665,115.354579 C98.5489641,114.971718 97.2146813,114.218758 96.4415284,114.218758 C95.2817991,114.218758 91.9451781,114.377372 88.788594,123.434771 C88.3937925,124.577885 87.6115007,126.658097 87.6115007,126.658097 L87.677301,115.764787 C87.677301,115.509547 87.5420449,115.261599 87.2276659,115.093869 C86.6957806,114.805812 85.2755919,114.218758 84.0125927,114.218758 C83.4112515,114.218758 83.1114949,114.4977 83.1114949,115.05376 L83,132.096547 C83,133.389159 83.0365557,134.902372 83.1645006,135.56144 C83.2942733,136.222331 83.500813,136.761983 83.7585306,137.080122 C84.0162483,137.400085 84.3141772,137.644387 84.8040235,137.74466 C85.2609696,137.838552 87.7650346,138.156691 87.8948073,137.206831 C88.050169,136.069187 88.0574802,134.83765 89.3716573,130.249698 C91.4169484,123.104781 94.0827723,119.620746 95.3375465,118.381005 C95.5550529,118.165873 95.8091149,118.151288 95.7944927,118.504979 C95.7414869,120.071063 95.5532251,123.989008 95.4271079,127.310784 C95.08714,136.211392 96.7193517,137.861341 99.0479494,137.861341 C100.831867,137.861341 103.345071,136.103827 106.039226,131.648965 C107.71896,128.874133 109.351172,126.156731 110.522781,124.196847 C111.337973,124.944338 112.255521,125.753815 113.171241,126.616164 C115.298783,128.621627 115.998824,130.526817 115.534567,132.332645 C115.179977,133.715503 113.843866,135.139381 111.467746,133.755612 C110.775016,133.350873 110.478915,133.040938 109.784356,132.583328 C109.407833,132.340849 108.837564,132.2661 108.493941,132.524076 C107.607465,133.190436 107.099341,134.036377 106.806895,135.084687 C106.523589,136.10565 107.552631,136.643479 108.620058,137.114762 C109.539433,137.522236 111.515269,137.890512 112.774612,137.932444 C117.684042,138.094704 121.613779,135.57876 124.349972,129.091999 C124.841647,134.694533 126.925321,137.866811 130.54799,137.866811 C132.969805,137.866811 135.397103,134.758343 136.460874,131.700924 C136.766114,132.949781 137.215749,134.030907 137.798812,134.947951 C140.591667,139.338091 146.005565,138.393701 148.725309,134.665363 C149.56609,133.512222 149.695862,133.097456 149.695862,133.097456 C150.092492,136.619778 152.949319,137.848579 154.583359,137.848579 C156.414799,137.848579 158.305642,136.989877 159.629872,134.029084 C159.785234,134.349958 159.955218,134.65807 160.140738,134.947951 C162.930851,139.338091 168.346577,138.393701 171.065407,134.665363 C171.196093,134.488518 171.307588,134.33355 171.401719,134.189521 L171.482142,136.501273 C171.482142,136.501273 169.933094,137.915124 168.980818,138.782031 C164.781483,142.59788 161.592913,145.498508 161.356215,148.871332 C161.0592,153.170315 164.57403,154.769216 167.233456,154.978878 C170.053728,155.200391 172.474629,153.655273 173.95879,151.48755 C175.268398,149.580537 176.121973,145.473896 176.059828,141.420126 C176.034239,139.799348 175.9922,137.733721 175.961128,135.519508 C177.434322,133.823069 179.094865,131.677223 180.622893,129.163102 C182.288919,126.422911 184.074664,122.745621 184.988556,119.885102 C184.988556,119.885102 186.538518,119.897864 188.195405,119.790298 C188.724548,119.759305 188.876254,119.863224 188.779382,120.249732 C188.66149,120.712811 186.688396,128.26976 188.488764,133.301648 C189.721605,136.745575 192.499838,137.855872 194.147585,137.855872 C196.075898,137.855872 197.921961,136.411939 198.908964,134.26427 C199.029598,134.503103 199.153888,134.732819 199.289144,134.947951 C202.080171,139.338091 207.477619,138.386408 210.217468,134.665363 C210.835259,133.824892 211.184366,133.097456 211.184366,133.097456 C211.771999,136.741017 214.626999,137.866811 216.261038,137.866811 C217.965447,137.866811 219.580295,137.175838 220.891731,134.094718 C220.947478,135.45114 221.034298,136.561437 221.169554,136.909658 C221.252718,137.120232 221.736167,137.390969 222.088016,137.522236 C223.647116,138.094704 225.234547,137.824878 225.82218,137.706374 C226.23069,137.624332 226.54781,137.299812 226.592591,136.462987 C226.703172,134.26427 226.636458,130.568749 227.308169,127.824912 C228.434998,123.215993 229.485974,121.429308 229.984959,120.545082 C230.262783,120.049185 230.578075,119.967144 230.589956,120.490387 C230.613717,121.553282 230.668551,124.669042 231.103564,128.856813 C231.422512,131.939757 231.852955,133.761082 232.181043,134.337196 C233.121438,135.985322 234.282081,136.063717 235.226132,136.063717 C235.828387,136.063717 237.084075,135.895988 236.97258,134.847678 C236.917747,134.339019 237.013705,131.181327 238.123171,126.638042 C238.851543,123.673604 240.060622,120.997222 240.496549,120.016369 C240.657394,119.655385 240.734161,119.94162 240.730505,119.996314 C240.638202,122.036417 240.432577,128.714608 241.269702,132.366373 C242.404756,137.314397 245.691113,137.866811 246.83622,137.866811 C249.279968,137.866811 251.278651,136.023608 251.951275,131.166742 C252.113948,129.998104 251.874509,129.093823 251.154361,129.093823 M72.8175312,102.183684 C68.9156425,103.776429 64.6211576,108.277112 63.2655893,113.926096 C61.5489064,121.084378 68.6934182,124.112044 69.2804608,123.119753 C69.9675043,121.953313 68.0008191,121.559661 67.5934078,117.844466 C67.0693288,113.049905 69.3582393,107.689357 72.2378961,105.334706 C72.7712345,104.899332 72.7453083,105.507042 72.7453083,106.633574 C72.7453083,108.647181 72.6323443,126.704336 72.6323443,130.472139 C72.6323443,135.569649 72.4156755,137.181441 72.0286349,138.768744 C71.6341867,140.384165 71.0045511,141.474415 71.4804815,141.893463 C72.0175236,142.360583 74.3027304,141.245843 75.6231132,139.445389 C77.2101652,137.287564 77.765726,134.695272 77.8657269,131.883478 C77.9860984,128.485744 77.9805428,123.103427 77.9860984,120.032223 C77.9898022,117.213173 78.0360989,108.966455 77.936098,104.006814 C77.9101718,102.793208 74.4508799,101.51611 72.8175312,102.183684" id="Fill-1" fill="#FFFFFF"></path></g></g></g></g></svg> 