<?xml version="1.0" encoding="UTF-8"?> <svg xmlns="http://www.w3.org/2000/svg" xmlns:xlink="http://www.w3.org/1999/xlink" width="197px" height="140px" viewBox="0 0 197 140"><!-- Generator: Sketch 58 (84663) - https://sketch.com --><title>Group 5</title><desc>Created with Sketch.</desc><g id="What-We-Build" stroke="none" stroke-width="1" fill="none" fill-rule="evenodd"><g id="D_FB_Tech_Messenger" transform="translate(-182.000000, -231.000000)" fill="#FFFFFF"><g id="Logo" transform="translate(123.000000, 228.000000)"><g id="Group-5" transform="translate(59.000000, 3.000000)"><path d="M29.8129564,132.125609 L29.8129564,104 L22.9840724,104 L14.9845226,124.192745 L14.8284338,124.192745 L6.82888399,104 L0,104 L0,132.125609 L5.24848512,132.125609 L5.24848512,113.14131 L5.4045739,113.14131 L13.052924,132.125609 L16.7600324,132.125609 L24.4083825,113.14131 L24.5644713,113.14131 L24.5644713,132.125609 L29.8129564,132.125609 Z M47.4066448,125.732539 C46.8798451,127.330807 45.2799352,128.363833 43.1922478,128.363833 C40.2850943,128.363833 38.3925179,126.317271 38.3925179,123.335138 L38.3925179,122.984299 L52.8112187,122.984299 L52.8112187,121.249594 C52.8112187,114.895506 48.9675325,110.782891 42.8800702,110.782891 C36.6950524,110.782891 32.792833,115.109908 32.792833,121.775853 C32.792833,128.461289 36.6560303,132.573904 43.0946923,132.573904 C48.265133,132.573904 52.0112637,129.825663 52.6356188,125.732539 L47.4066448,125.732539 Z M42.9386035,114.992962 C45.4750461,114.992962 47.2115338,116.825122 47.3286004,119.495398 L38.4510512,119.495398 C38.6461622,116.883595 40.4411831,114.992962 42.9386035,114.992962 Z M54.932607,117.370872 C54.932607,120.508933 56.9812722,122.536004 61.0200693,123.393611 L64.5906001,124.134272 C66.6392653,124.602057 67.3611759,125.225772 67.3611759,126.336762 C67.3611759,127.701137 66.0344213,128.578235 63.8882006,128.578235 C61.6249133,128.578235 60.3176698,127.603682 59.9664701,125.771521 L54.4058074,125.771521 C54.7765183,129.884136 58.1129159,132.573904 63.8882006,132.573904 C69.2732634,132.573904 73.0389051,129.864645 73.0389051,125.75203 C73.0389051,122.764792 71.3283438,121.059158 67.1812065,120.12744 L63.3028677,119.300487 C61.1956692,118.852193 60.4152253,118.131023 60.4152253,117.059015 C60.4152253,115.675149 61.7224688,114.77856 63.6930896,114.77856 C65.8002881,114.77856 67.0685094,115.928533 67.2441093,117.624256 L72.4925944,117.624256 C72.3755278,113.531132 69.0586413,110.782891 63.6930896,110.782891 C58.3665601,110.782891 54.932607,113.394694 54.932607,117.370872 Z M75.0432269,117.370872 C75.0432269,120.508933 77.0918921,122.536004 81.1306892,123.393611 L84.70122,124.134272 C86.7498852,124.602057 87.4717958,125.225772 87.4717958,126.336762 C87.4717958,127.701137 86.1450412,128.578235 83.9988205,128.578235 C81.7355332,128.578235 80.4282897,127.603682 80.07709,125.771521 L74.5164273,125.771521 C74.8871382,129.884136 78.2235358,132.573904 83.9988205,132.573904 C89.3838833,132.573904 93.1495251,129.864645 93.1495251,125.75203 C93.1495251,122.764792 91.4389637,121.059158 87.2918264,120.12744 L83.4134876,119.300487 C81.3062891,118.852193 80.5258452,118.131023 80.5258452,117.059015 C80.5258452,115.675149 81.8330887,114.77856 83.8037095,114.77856 C85.910908,114.77856 87.1791293,115.928533 87.3547292,117.624256 L92.6032143,117.624256 C92.4861478,113.531132 89.1692612,110.782891 83.8037095,110.782891 C78.47718,110.782891 75.0432269,113.394694 75.0432269,117.370872 Z M109.357926,125.732539 C108.831126,127.330807 107.231216,128.363833 105.143529,128.363833 C102.236375,128.363833 100.343799,126.317271 100.343799,123.335138 L100.343799,122.984299 L114.762499,122.984299 L114.762499,121.249594 C114.762499,114.895506 110.918813,110.782891 104.831351,110.782891 C98.6463332,110.782891 94.7441138,115.109908 94.7441138,121.775853 C94.7441138,128.461289 98.607311,132.573904 105.045973,132.573904 C110.216414,132.573904 113.962544,129.825663 114.5869,125.732539 L109.357926,125.732539 Z M104.889884,114.992962 C107.426327,114.992962 109.162815,116.825122 109.279881,119.495398 L100.402332,119.495398 C100.597443,116.883595 102.392464,114.992962 104.889884,114.992962 Z M117.235088,132.125609 L122.932328,132.125609 L122.932328,120.138603 C122.932328,117.429345 124.551749,115.558202 127.107703,115.558202 C129.663656,115.558202 130.951389,117.117488 130.951389,119.846237 L130.951389,132.125609 L136.648629,132.125609 L136.648629,118.657282 C136.648629,113.765024 134.034142,110.841364 129.390501,110.841364 C126.17117,110.841364 123.966416,112.361668 122.854284,114.953979 L122.737217,114.953979 L122.737217,111.231186 L117.235088,111.231186 L117.235088,132.125609 Z M149.364543,140 C155.627605,140 159.80298,136.803465 159.80298,131.833243 L159.80298,111.231186 L154.183784,111.231186 L154.183784,114.876015 L154.086229,114.876015 C152.993607,112.478614 150.632765,110.899838 147.628056,110.899838 C142.321037,110.899838 139.043173,114.97347 139.043173,121.600433 C139.043173,128.12994 142.418593,132.067136 147.5305,132.067136 C150.55472,132.067136 153.013118,130.546833 153.988673,128.324851 L154.10574,128.324851 L154.10574,131.989172 C154.10574,134.406064 152.466808,136.023822 149.520632,136.023822 C147.3549,136.023822 145.715968,135.049269 145.267213,133.60693 L139.687039,133.60693 C140.135794,137.329724 143.862414,140 149.364543,140 Z M149.462099,127.681646 C146.63299,127.681646 144.876991,125.459664 144.876991,121.639415 C144.876991,117.838657 146.652501,115.460747 149.462099,115.460747 C152.310719,115.460747 154.125251,117.877639 154.125251,121.639415 C154.125251,125.420682 152.310719,127.681646 149.462099,127.681646 Z M176.908891,125.732539 C176.382092,127.330807 174.782182,128.363833 172.694494,128.363833 C169.787341,128.363833 167.894764,126.317271 167.894764,123.335138 L167.894764,122.984299 L182.313465,122.984299 L182.313465,121.249594 C182.313465,114.895506 178.469779,110.782891 172.382317,110.782891 C166.197299,110.782891 162.295079,115.109908 162.295079,121.775853 C162.295079,128.461289 166.158277,132.573904 172.596939,132.573904 C177.767379,132.573904 181.51351,129.825663 182.137865,125.732539 L176.908891,125.732539 Z M172.44085,114.992962 C174.977293,114.992962 176.71378,116.825122 176.830847,119.495398 L167.953298,119.495398 C168.148409,116.883595 169.94343,114.992962 172.44085,114.992962 Z M184.786053,132.125609 L184.786053,111.231186 L190.288183,111.231186 L190.288183,114.992962 L190.405249,114.992962 C191.146671,112.342177 192.922181,110.899838 195.380579,110.899838 C196.043956,110.899838 196.609778,110.997293 197,111.114239 L197,116.123443 C196.531734,115.928533 195.75129,115.792095 194.931824,115.792095 C192.122226,115.792095 190.483294,117.507309 190.483294,120.45046 L190.483294,132.125609 L184.786053,132.125609 Z" id="Messenger" fill-rule="nonzero"></path><path d="M97.5,0 C74.1197183,0 56,17.1262734 56,40.2563453 C56,52.3557945 60.9599598,62.8102529 69.034507,70.0331815 C69.7108652,70.6427466 70.1200201,71.4861174 70.1534205,72.3962899 L70.3788732,79.7778724 C70.4540241,82.1326307 72.8839034,83.6607184 75.0382294,82.7171451 L83.2714286,79.0848053 C83.972837,78.7758477 84.7493964,78.7173962 85.4842052,78.9178012 C89.2668008,79.961577 93.2998994,80.5126906 97.5,80.5126906 C120.880282,80.5126906 139,63.3864172 139,40.2563453 C139,17.1262734 120.880282,0 97.5,0 Z M122.261131,30.4287353 L110.1461,49.9327823 C108.220972,53.031871 104.088585,53.8066431 101.200893,51.6086482 L91.5669542,44.273577 C90.6790719,43.599862 89.4675688,43.6082835 88.5879844,44.2819984 L75.5767736,54.3035079 C73.8424987,55.6425163 71.5688559,53.5287357 72.7388692,51.6591768 L84.8538997,32.1551298 C86.7790278,29.0560411 90.9114149,28.2812689 93.7991071,30.4792639 L103.433046,37.8143351 C104.320928,38.4880501 105.532431,38.4796286 106.412016,37.8059137 L119.423226,27.7844042 C121.157501,26.4453958 123.431144,28.5591764 122.261131,30.4287353 Z" id="Logo"></path></g></g></g></g></svg> 