<?xml version="1.0" encoding="UTF-8"?> <svg xmlns="http://www.w3.org/2000/svg" xmlns:xlink="http://www.w3.org/1999/xlink" width="170px" height="128px" viewBox="0 0 170 128"><!-- Generator: Sketch 58 (84663) - https://sketch.com --><title>Logo</title><desc>Created with Sketch.</desc><g id="What-We-Build" stroke="none" stroke-width="1" fill="none" fill-rule="evenodd"><g id="D_FB_Tech_Oculus" transform="translate(-196.000000, -236.000000)"><g id="Hero"><g id="Logo" transform="translate(123.000000, 228.000000)"><rect id="Logo-Container" x="0" y="0" width="315" height="158"></rect><path d="M87.3448727,106.698886 C91.1503348,106.712041 94.8607207,108.176797 97.550247,110.964242 C100.243802,113.75577 101.604142,117.5502 101.590812,121.400151 C101.578091,125.249014 100.192504,129.033647 97.4801485,131.806123 C94.7718219,134.574789 91.0509614,136.013418 87.246305,135.999906 C83.440843,135.987019 79.7296512,134.521991 77.0403936,131.734818 C74.3468387,128.94329 72.9867667,125.148315 73.000097,121.298908 C73.0128186,117.450046 74.3989425,113.665413 77.1110292,110.892937 C79.8193558,108.124271 83.5396791,106.685642 87.3448727,106.698886 Z M192.669335,107.46988 L192.669615,114.091141 C192.669895,115.469364 192.669615,116.900095 192.67689,118.278048 C192.679967,119.087605 192.686123,119.896891 192.705988,120.706448 C192.737326,121.947444 192.795803,123.232829 193.040624,124.460291 C193.22361,125.373784 193.516276,126.262104 194.01683,127.070308 C195.252406,129.066728 197.447401,129.982385 199.755714,129.954236 C202.027372,129.926087 204.260979,128.979032 205.532649,127.051361 C206.057266,126.256961 206.367559,125.375137 206.545788,124.458938 C206.6398,123.971742 206.695759,123.469931 206.730174,122.975968 C206.782495,122.209988 206.785573,121.417483 206.791169,120.650691 C206.800622,119.250293 206.800575,112.990473 206.799985,109.525715 L206.799563,107.46988 L213.636364,107.46988 L213.636364,135.376184 L207.656576,135.376184 C207.591943,134.504103 207.527591,133.582762 207.463517,132.68984 C206.135608,134.017178 204.240834,134.924716 202.45434,135.432211 C200.59454,135.960548 198.617226,136.125383 196.691114,135.904791 C192.765585,135.455759 189.244919,133.412243 187.432125,129.883863 C186.547692,128.162979 186.189833,126.328958 186.01692,124.452442 C185.943893,123.661832 185.905002,122.857688 185.8801,122.064641 C185.845405,120.98009 185.835612,119.869012 185.828897,118.78446 C185.822876,117.788721 185.820146,115.905606 185.818979,113.921952 L185.818545,107.46988 L192.669335,107.46988 Z M234.198515,106.116569 C236.904768,106.524846 239.42675,107.556527 241.64668,109.155998 C240.538344,110.673542 239.430821,112.190544 238.323298,113.707817 C236.930549,112.858437 235.438745,112.219028 233.832145,111.883454 C232.771572,111.662089 231.664864,111.574194 230.581494,111.698983 C230.036824,111.761649 229.516579,111.873688 229.001761,112.071723 C228.604182,112.224997 228.243511,112.415978 227.909436,112.684275 C227.434512,113.06461 227.05593,113.582214 226.98157,114.214569 C226.918609,114.750349 227.094466,115.244894 227.425285,115.65507 C227.818522,116.142833 228.386531,116.472168 228.940157,116.713065 C229.460673,116.939313 229.995845,117.101539 230.542143,117.245589 C231.177727,117.413783 231.818739,117.552407 232.460022,117.694558 C233.920617,118.017925 235.364114,118.357569 236.76609,118.906912 C239.24655,119.879182 241.60543,121.533723 242.57129,124.235408 C242.989765,125.406527 243.092349,126.642482 242.920562,127.8665 C242.713767,129.343081 242.118619,130.746417 241.210564,131.927844 C240.504149,132.846672 239.640601,133.589981 238.649503,134.183543 C237.296105,134.994401 235.783676,135.483249 234.244108,135.751275 C233.038887,135.960975 231.845063,136.031779 230.62383,135.987289 C229.104616,135.930591 227.645107,135.697832 226.182884,135.283315 C223.537964,134.533767 221.155203,133.250338 219.045455,131.498949 C220.22598,129.921181 221.407591,128.343954 222.589202,126.766186 C223.900535,127.776435 225.265602,128.590277 226.826338,129.170547 C227.847289,129.550069 228.87801,129.799647 229.958937,129.932032 C230.927239,130.051124 231.945747,130.077438 232.918392,129.954548 C233.617751,129.866653 234.321724,129.696018 234.961379,129.381061 C235.447701,129.141791 235.900371,128.81544 236.237975,128.380577 C236.522115,128.01462 236.710999,127.586539 236.756592,127.120207 C236.805984,126.617524 236.681961,126.131931 236.426044,125.701952 C236.12345,125.194928 235.66888,124.811337 235.173873,124.515641 C234.544803,124.138561 233.819119,123.883286 233.123016,123.683894 C232.264082,123.437571 231.39185,123.25717 230.519618,123.069172 C228.02966,122.531765 225.136965,121.879064 223.065211,120.081558 C222.077369,119.224039 221.344358,118.157092 220.947593,116.901605 C220.516091,115.535707 220.527489,114.089238 220.903086,112.719813 C221.207851,111.61136 221.740309,110.587004 222.464365,109.695033 C223.47446,108.452024 224.761368,107.570362 226.222777,106.959709 C227.326501,106.498532 228.446779,106.21857 229.630561,106.062041 C231.146518,105.862107 232.688528,105.889507 234.198515,106.116569 Z M143.835434,107.46988 L143.835708,114.091141 C143.836255,115.469364 143.835708,116.900095 143.842821,118.278048 C143.846103,119.087605 143.852395,119.896891 143.871545,120.706448 C143.901911,121.947444 143.959359,123.232829 144.198728,124.460291 C144.377093,125.373784 144.662968,126.262104 145.152375,127.070308 C146.360711,129.066728 148.507374,129.982385 150.763737,129.954236 C152.98481,129.926087 155.168678,128.979032 156.412577,127.051361 C156.925238,126.256961 157.228895,125.375137 157.402882,124.458938 C157.495073,123.971742 157.549786,123.469931 157.583161,122.975968 C157.633771,122.209988 157.637327,121.417483 157.642251,120.650691 C157.64782,119.844401 157.650198,117.427229 157.651132,114.860122 L157.651279,107.46988 L157.651279,107.46988 L164.181818,107.46988 L164.181818,107.46988 L164.181818,135.376184 L164.181818,135.376184 L158.488661,135.376184 C158.425741,134.504103 158.362821,133.582762 158.300174,132.68984 C157.001836,134.017178 155.148708,134.924716 153.402543,135.432211 C151.584158,135.960548 149.651149,136.125383 147.767655,135.904791 C143.929267,135.455759 140.487548,133.412243 138.714848,129.883863 C137.85011,128.162979 137.499947,126.328958 137.330884,124.452442 C137.259757,123.661832 137.221731,122.857688 137.196837,122.064641 C137.162915,120.98009 137.153614,119.869012 137.147048,118.78446 C137.140346,117.650918 137.137747,115.367391 137.136824,113.09469 L137.136653,107.46988 L137.136653,107.46988 L143.835434,107.46988 L143.835434,107.46988 Z M123.391198,106.790494 C126.179438,107.084207 128.681886,108.040163 130.915493,109.678305 L131.285275,109.957649 L127.253577,115.009514 C125.888103,114.148171 124.408202,113.567472 122.7852,113.373097 C121.877433,113.264721 120.999434,113.282514 120.097402,113.432137 C119.396367,113.548331 118.731928,113.736236 118.078685,114.014184 C116.543893,114.666055 115.384332,115.685648 114.603828,117.155458 C113.862922,118.550321 113.556782,120.187817 113.643353,121.744705 C113.73129,123.315072 114.218218,124.885978 115.147832,126.186216 C116.091102,127.506672 117.409603,128.437031 118.957504,128.936583 C120.486016,129.429395 122.147251,129.473608 123.706622,129.129879 C125.279375,128.783185 126.733604,128.046663 127.915285,126.956167 C129.44325,128.513594 130.972308,130.070752 132.5,131.62737 C130.480191,133.717509 127.867221,135.06115 125.031405,135.65398 C122.228087,136.239532 119.222679,136.085056 116.50484,135.16656 C113.73921,134.232158 111.372024,132.546136 109.683753,130.167265 C108.016236,127.818858 107.15708,125.001633 107.019713,122.170389 C106.88262,119.349659 107.458303,116.442659 108.818042,113.929802 C110.204271,111.368149 112.307101,109.38989 114.964313,108.144919 C117.56991,106.923942 120.543092,106.49017 123.391198,106.790494 Z M178.863636,95.9036145 L178.863636,135.228916 L171.909091,135.228916 L171.909091,95.9036145 L178.863636,95.9036145 Z M87.323118,113.245965 C86.780056,113.244112 86.2369941,113.293917 85.7033324,113.396521 C85.1841738,113.496131 84.6741468,113.645818 84.1837259,113.84531 C83.7137168,114.036637 83.2614338,114.274776 82.8384256,114.558092 C82.4285777,114.8327 82.0455874,115.148948 81.6996607,115.502481 C81.3521226,115.857648 81.041648,116.249828 80.7728028,116.669496 C80.4934831,117.105766 80.2587472,117.572245 80.0691321,118.056143 C79.870654,118.565351 79.7210568,119.094154 79.6203406,119.632756 C79.5158643,120.189319 79.4634918,120.755408 79.4615596,121.32177 C79.4597317,121.888403 79.5086127,122.455037 79.6087918,123.012145 C79.7060165,123.551018 79.8513165,124.081183 80.0471088,124.592024 C80.2332324,125.077554 80.4652826,125.545122 80.7416479,125.984113 C81.0075388,126.405142 81.3153276,126.799772 81.6607171,127.157388 C82.003958,127.513098 82.3842625,127.83234 82.792499,128.109669 C83.2133586,128.395708 83.6642987,128.637112 84.1332335,128.831705 C84.6220429,129.034463 85.1312642,129.187688 85.6493485,129.290564 C86.1827416,129.396978 86.7252664,129.450865 87.2683283,129.452798 C87.8111217,129.454131 88.3541836,129.404871 88.8875768,129.302267 C89.4072725,129.202657 89.9167624,129.05297 90.4074518,128.853478 C90.8777295,128.661879 91.3300125,128.424012 91.7530207,128.140695 C92.1634058,127.86636 92.5458589,127.54984 92.8917855,127.196306 C93.2390551,126.841412 93.5489925,126.449232 93.8178377,126.029564 C94.0979631,125.593294 94.3326991,125.126543 94.5215085,124.642917 C94.7213295,124.133709 94.8701209,123.604906 94.9708371,123.066304 C95.0747763,122.509741 95.1276859,121.943651 95.1298616,121.376746 C95.1311774,120.810112 95.082565,120.243479 94.9821174,119.686371 C94.8854298,119.147497 94.7395927,118.616789 94.5438003,118.106492 C94.3579453,117.621234 94.1261637,117.153394 93.8492612,116.714674 C93.5833703,116.293646 93.2758501,115.899016 92.9312663,115.5414 C92.5872197,115.185417 92.2066466,114.866448 91.7986787,114.589118 C91.3778192,114.302808 90.9274162,114.061676 90.4579442,113.867082 C89.9685976,113.664052 89.4604507,113.510827 88.9418292,113.407951 C88.4089732,113.30181 87.8659113,113.247922 87.323118,113.245965 Z M174.922384,8.00087164 C176.506475,8.00348658 178.090413,8.0139463 179.674658,8.05578522 C182.509672,8.16763046 185.288949,8.44738097 188.067952,9.11790283 C192.903542,10.2918657 197.350603,12.4721609 201.241098,15.6030033 C209.078646,21.9199237 213.636364,31.4234718 213.636364,41.5423061 C213.636364,51.6050803 209.078646,61.1646884 201.241098,67.4818836 C197.350603,70.6124512 192.903542,72.7927465 188.067952,73.9667093 C185.288675,74.637506 182.509672,74.9169817 179.674658,75.0288269 C178.090413,75.0704597 176.506475,75.0808679 174.922384,75.08347 L173.338225,75.0843373 L143.434229,75.0843373 C141.322449,75.0843373 139.210123,75.0843373 137.097796,75.0288269 C134.263055,74.9169817 131.483779,74.637506 128.704503,73.9667093 C123.868912,72.7927465 119.422124,70.6124512 115.531356,67.4818836 C107.694082,61.1649632 103.136364,51.6611404 103.136364,41.5423061 C103.136364,31.4795318 107.694082,21.9201985 115.531356,15.6030033 C119.421851,12.4721609 123.868912,10.2918657 128.704503,9.11790283 C131.484052,8.44710617 134.263055,8.16763046 137.097796,8.05578522 C138.682041,8.0139463 140.266132,8.00348658 141.850185,8.00087164 L174.922384,8.00087164 Z M134.985197,30.6411047 C133.206482,30.9203056 131.594709,31.5355918 130.094141,32.5416494 C127.147922,34.5543142 125.369754,37.9088471 125.369754,41.5423061 C125.369754,45.1202547 127.147922,48.4745127 130.094141,50.5429627 C131.594709,51.5492951 133.206482,52.1643066 134.985197,52.4437823 C136.566277,52.6922051 138.103532,52.6757304 139.674681,52.6690025 L140.265603,52.6674728 L176.506578,52.6674728 C178.28502,52.6674728 180.007996,52.723258 181.786711,52.4437823 C183.565699,52.1643066 185.177471,51.5492951 186.67804,50.5429627 C189.624259,48.530298 191.4027,45.1763147 191.4027,41.5423061 C191.4027,37.9646323 189.624259,34.6100994 186.67804,32.5416494 C185.177198,31.5355918 183.565699,30.9203056 181.786711,30.6411047 C180.205631,30.3921933 178.668591,30.4090479 177.09749,30.4158664 L176.506578,30.4174142 L140.265603,30.4174142 C138.487161,30.4174142 136.763912,30.3613542 134.985197,30.6411047 Z" id="Combined-Shape" fill="#FFFFFF"></path></g></g></g></g></svg> 