<?xml version="1.0" encoding="UTF-8"?> <svg xmlns="http://www.w3.org/2000/svg" xmlns:xlink="http://www.w3.org/1999/xlink" width="178px" height="145px" viewBox="0 0 178 145"><!-- Generator: Sketch 58 (84663) - https://sketch.com --><title>Group 5</title><desc>Created with Sketch.</desc><g id="What-We-Build" stroke="none" stroke-width="1" fill="none" fill-rule="evenodd"><g id="D_FB_Tech_WhatsApp" transform="translate(-192.000000, -235.000000)" fill="#FFFFFF"><g id="Hero"><g id="Logo" transform="translate(123.000000, 228.000000)"><g id="Group-5" transform="translate(69.000000, 7.000000)"><path d="M172.351184,130.000363 C172.200025,130.753376 171.939806,131.409576 171.572505,131.972871 C171.203508,132.537003 170.721213,132.995953 170.125337,133.344978 C169.53059,133.696514 168.788076,133.872282 167.900337,133.872282 C167.037178,133.872282 166.301727,133.696514 165.693419,133.344978 C165.083698,132.995953 164.5966,132.537003 164.227321,131.972871 C163.861432,131.409576 163.594149,130.753376 163.428581,130.000363 C163.263578,129.249862 163.181924,128.484015 163.181924,127.710078 C163.181924,126.905451 163.25934,126.129282 163.410498,125.379338 C163.562787,124.626884 163.823289,123.963708 164.19059,123.385348 C164.557892,122.810614 165.040752,122.340504 165.636629,121.978087 C166.231092,121.614275 166.973324,121.431532 167.862194,121.431532 C168.724505,121.431532 169.452892,121.614275 170.048203,121.978087 C170.646057,122.340504 171.132873,122.815078 171.514302,123.404598 C171.896295,123.994398 172.168663,124.664548 172.332819,125.415608 C172.499517,126.168341 172.580324,126.932514 172.580324,127.710078 C172.580324,128.484015 172.50319,129.249862 172.351184,130.000363 L172.351184,130.000363 Z M177.449895,123.89368 C177.09446,122.629266 176.549441,121.520253 175.813143,120.566921 C175.07741,119.615821 174.153505,118.851648 173.03719,118.275799 C171.920311,117.697996 170.587289,117.411188 169.040102,117.411188 C167.824333,117.411188 166.706889,117.648614 165.693419,118.12542 C164.678254,118.601388 163.841371,119.365561 163.181924,120.417379 L163.107333,120.417379 L163.107333,117.936539 L157.969914,117.936539 L157.969914,144.169498 L163.372073,144.169498 L163.372073,134.962043 L163.448076,134.962043 C164.107524,135.915097 164.9526,136.634351 165.978784,137.121758 C167.005251,137.609724 168.129194,137.855241 169.34694,137.855241 C170.791283,137.855241 172.052822,137.578755 173.132689,137.028015 C174.208883,136.477554 175.111597,135.737376 175.832921,134.810269 C176.557352,133.882884 177.09446,132.819905 177.449895,131.616871 C177.807025,130.413837 177.98333,129.160862 177.98333,127.858504 C177.98333,126.480539 177.807025,125.15921 177.449895,123.89368 L177.449895,123.89368 Z M150.818552,130.000363 C150.664851,130.753376 150.404067,131.409576 150.03733,131.972871 C149.669746,132.537003 149.187733,132.995953 148.589314,133.344978 C147.995416,133.696514 147.252337,133.872282 146.365162,133.872282 C145.501721,133.872282 144.769095,133.696514 144.160222,133.344978 C143.550219,132.995953 143.062838,132.537003 142.694406,131.972871 C142.326257,131.409576 142.06067,130.753376 141.895102,130.000363 C141.729816,129.249862 141.649292,128.484015 141.649292,127.710078 C141.649292,126.905451 141.723317,126.129282 141.875041,125.379338 C142.02959,124.626884 142.287832,123.963708 142.656546,123.385348 C143.022152,122.810614 143.505578,122.340504 144.103432,121.978087 C144.69846,121.614275 145.438149,121.431532 146.327867,121.431532 C147.188765,121.431532 147.920825,121.614275 148.515289,121.978087 C149.111165,122.340504 149.600806,122.815078 149.980257,123.404598 C150.359708,123.994398 150.632359,124.664548 150.797927,125.415608 C150.96406,126.168341 151.044019,126.932514 151.044019,127.710078 C151.044019,128.484015 150.969994,129.249862 150.818552,130.000363 L150.818552,130.000363 Z M154.279381,120.566921 C153.544778,119.615821 152.617765,118.851648 151.501451,118.275799 C150.384854,117.697996 149.054657,117.411188 147.508035,117.411188 C146.289159,117.411188 145.173975,117.648614 144.160222,118.12542 C143.142797,118.601388 142.307892,119.365561 141.649292,120.417379 L141.571876,120.417379 L141.571876,117.936539 L136.43361,117.936539 L136.43361,144.169498 L141.840006,144.169498 L141.840006,134.962043 L141.913184,134.962043 C142.572067,135.915097 143.417708,136.634351 144.445305,137.121758 C145.470359,137.609724 146.593454,137.855241 147.811483,137.855241 C149.258368,137.855241 150.51906,137.578755 151.596667,137.028015 C152.675121,136.477554 153.575575,135.737376 154.298311,134.810269 C155.022178,133.882884 155.558721,132.819905 155.916698,131.616871 C156.269308,130.413837 156.448721,129.160862 156.448721,127.858504 C156.448721,126.480539 156.269308,125.15921 155.916698,123.89368 C155.558721,122.629266 155.015114,121.520253 154.279381,120.566921 L154.279381,120.566921 Z M118.744365,126.994172 L122.282327,117.148373 L122.35833,117.148373 L125.783276,126.994172 L118.744365,126.994172 Z M119.313965,110.533357 L109.042235,137.365601 L115.053549,137.365601 L117.183051,131.390884 L127.342895,131.390884 L129.395546,137.365601 L135.598987,137.365601 L125.441121,110.533357 L119.313965,110.533357 Z M108.584521,128.854802 C108.229651,128.241567 107.760352,127.727376 107.176908,127.312786 C106.594029,126.900708 105.926387,126.567586 105.179917,126.316489 C104.43034,126.067344 103.66381,125.856144 102.876654,125.679539 C102.116622,125.503492 101.369022,125.340279 100.633571,125.189899 C99.8978381,125.03952 99.2434762,124.870448 98.672746,124.683241 C98.1022984,124.49436 97.6409111,124.251912 97.2854762,123.948921 C96.9294762,123.648721 96.753454,123.261473 96.753454,122.785225 C96.753454,122.383749 96.8523429,122.064576 97.056619,121.826034 C97.2603302,121.588887 97.5075524,121.40726 97.7991333,121.280316 C98.0912794,121.157 98.412527,121.075532 98.768527,121.036473 C99.1233968,121.000203 99.4542508,120.981511 99.7576984,120.981511 C100.722006,120.981511 101.559171,121.1623 102.270889,121.526112 C102.979216,121.889366 103.373076,122.584626 103.448232,123.611056 L108.584521,123.611056 C108.483089,122.409416 108.173143,121.414793 107.652705,120.623558 C107.133397,119.834275 106.478752,119.201511 105.693575,118.7261 C104.908679,118.250131 104.013594,117.912545 103.010295,117.711667 C102.00841,117.511348 100.975727,117.411188 99.9119651,117.411188 C98.8448127,117.411188 97.8039365,117.506326 96.7921619,117.692416 C95.7755841,117.880739 94.8624159,118.207445 94.0518095,118.6703 C93.2392254,119.133435 92.5871238,119.765363 92.0915492,120.566921 C91.5962571,121.369037 91.3493175,122.397141 91.3493175,123.648721 C91.3493175,124.501056 91.5278825,125.222263 91.8836,125.810667 C92.2353619,126.400467 92.7072032,126.887874 93.2883873,127.276517 C93.873527,127.664043 94.5397556,127.979031 95.2876381,128.214783 C96.0358032,128.455279 96.803181,128.660062 97.5883587,128.836667 C99.5178222,129.237865 101.021216,129.637109 102.098257,130.039423 C103.176429,130.439504 103.715232,131.0413 103.715232,131.842858 C103.715232,132.319385 103.602216,132.711655 103.373076,133.025247 C103.144502,133.340235 102.859702,133.589379 102.517829,133.777981 C102.17313,133.965746 101.792549,134.104128 101.376086,134.191175 C100.957079,134.279338 100.556721,134.323699 100.176422,134.323699 C99.6438349,134.323699 99.1301778,134.259808 98.637146,134.134539 C98.1412889,134.010106 97.7039175,133.814808 97.323619,133.551435 C96.9433206,133.288899 96.6308317,132.951313 96.3903905,132.537003 C96.1513619,132.123808 96.0281746,131.629984 96.0281746,131.053297 L90.8924508,131.053297 C90.9444381,132.355934 91.2413873,133.439279 91.7883841,134.30389 C92.3314254,135.167664 93.0284508,135.863203 93.8797429,136.390228 C94.7293397,136.915579 95.7004286,137.291946 96.7921619,137.517655 C97.8810698,137.742805 98.9973841,137.855241 100.137149,137.855241 C101.253463,137.855241 102.350848,137.748943 103.429867,137.538021 C104.507756,137.323194 105.465283,136.953802 106.302448,136.426498 C107.141308,135.901426 107.81686,135.207003 108.338429,134.341275 C108.856889,133.476106 109.116543,132.405595 109.116543,131.127232 C109.116543,130.224677 108.93939,129.468316 108.584521,128.854802 L108.584521,128.854802 Z M86.2523016,112.1122 L80.8484476,112.1122 L80.8484476,117.936539 L77.5777683,117.936539 L77.5777683,121.506862 L80.8484476,121.506862 L80.8484476,132.969727 C80.8484476,133.947332 81.015146,134.736614 81.3437397,135.336736 C81.6740286,135.936858 82.1235492,136.40362 82.6937143,136.727815 C83.264727,137.053683 83.9247397,137.272416 84.6731873,137.385131 C85.4193746,137.497288 86.2152889,137.554203 87.0504762,137.554203 C87.5853238,137.554203 88.1289302,137.54109 88.6880762,137.517655 C89.2446794,137.492266 89.7515556,137.444 90.2092698,137.365601 L90.2092698,133.231426 C89.9547016,133.282761 89.6888317,133.321542 89.4088349,133.344978 C89.1308159,133.370366 88.8386698,133.384037 88.5343746,133.384037 C87.622054,133.384037 87.0126159,133.231426 86.707473,132.931504 C86.4045905,132.631583 86.2523016,132.030344 86.2523016,131.127232 L86.2523016,121.506862 L90.2092698,121.506862 L90.2092698,117.936539 L86.2523016,117.936539 L86.2523016,112.1122 Z M70.7668667,129.848589 C70.7668667,130.151579 70.7360698,130.552498 70.6716508,131.053297 C70.6086444,131.554655 70.4371429,132.0482 70.1585587,132.537003 C69.879127,133.025247 69.4468413,133.44709 68.8650921,133.795558 C68.2819302,134.14821 67.4574794,134.323699 66.3908921,134.323699 C65.9608667,134.323699 65.5412952,134.284918 65.1361333,134.20931 C64.7295587,134.134539 64.3749714,134.002015 64.0706762,133.814808 C63.766946,133.626764 63.5250921,133.370366 63.3473746,133.044777 C63.1707873,132.719188 63.0809397,132.319385 63.0809397,131.842858 C63.0809397,131.342059 63.1707873,130.926912 63.3473746,130.60188 C63.5250921,130.277686 63.7601651,130.008175 64.0523111,129.793905 C64.3427619,129.581589 64.6857651,129.413075 65.0787778,129.285852 C65.4717905,129.160862 65.870454,129.061818 66.2775937,128.985652 C66.707619,128.912275 67.1401873,128.847269 67.5702127,128.797608 C68.0030635,128.74962 68.4147238,128.684893 68.8068889,128.61068 C69.2013143,128.535351 69.5677683,128.440213 69.9113365,128.327498 C70.2537746,128.214783 70.537727,128.059661 70.7668667,127.858504 L70.7668667,129.848589 Z M76.1693079,133.044777 L76.1693079,122.935884 C76.1693079,121.757122 75.9042857,120.811043 75.3697206,120.098206 C74.8382635,119.383695 74.1531048,118.826818 73.3170698,118.426178 C72.4787746,118.024981 71.552327,117.75547 70.537727,117.617645 C69.5242571,117.480658 68.5215238,117.411188 67.5332,117.411188 C66.4431619,117.411188 65.3573619,117.516927 64.2808857,117.731476 C63.200454,117.943235 62.2321905,118.301188 61.3690317,118.801429 C60.5067206,119.302228 59.7944381,119.967078 59.2395302,120.793746 C58.679819,121.619576 58.3630921,122.659677 58.2873714,123.912652 L63.6892476,123.912652 C63.7909619,122.860275 64.147527,122.108379 64.7566825,121.657241 C65.3649905,121.206661 66.2007429,120.981511 67.2673302,120.981511 C67.7484952,120.981511 68.1980159,121.013595 68.6175873,121.075532 C69.0354635,121.138586 69.4036127,121.262739 69.7211873,121.450504 C70.0384794,121.639385 70.2919175,121.901363 70.481219,122.240623 C70.6716508,122.578489 70.7668667,123.036322 70.7668667,123.611056 C70.7920127,124.164307 70.6264444,124.581128 70.2729873,124.870448 C69.9167048,125.15921 69.4355397,125.379338 68.8266667,125.527764 C68.2177937,125.679539 67.5202032,125.792811 66.7336127,125.865351 C65.9467397,125.941796 65.1482825,126.044188 64.3376762,126.168341 C63.5250921,126.293053 62.7192889,126.461846 61.9222444,126.674721 C61.1232222,126.887874 60.4109397,127.208163 59.7902,127.631959 C59.1683302,128.059661 58.661454,128.628815 58.2670286,129.343605 C57.8748635,130.057837 57.6784984,130.966808 57.6784984,132.068009 C57.6784984,133.070445 57.8494349,133.93394 58.1921556,134.65989 C58.5340286,135.38863 59.0095429,135.987915 59.6192635,136.464163 C60.2281365,136.940689 60.9378762,137.291946 61.7493302,137.517655 C62.5599365,137.742805 63.4358095,137.855241 64.3749714,137.855241 C65.5924349,137.855241 66.7853175,137.679473 67.9502286,137.330448 C69.1176825,136.977238 70.1331302,136.365956 70.9957238,135.487116 C71.0208698,135.812705 71.0652286,136.133551 71.1279524,136.445749 C71.1912413,136.758783 71.2743079,137.067075 71.3757397,137.365601 L76.8553143,137.365601 C76.6015937,136.967194 76.422746,136.365956 76.3224444,135.562445 C76.2198825,134.762003 76.1693079,133.923338 76.1693079,133.044777 L76.1693079,133.044777 Z M53.9113968,119.608567 C53.3793746,118.919724 52.6498571,118.38126 51.7251048,117.992617 C50.7983746,117.605648 49.6125556,117.411188 48.1676476,117.411188 C47.1527651,117.411188 46.113019,117.668423 45.0464317,118.182056 C43.9818222,118.695131 43.1065143,119.51594 42.4219206,120.643924 L42.3074921,120.643924 L42.3074921,110.533357 L36.9047683,110.533357 L36.9047683,137.365601 L42.3074921,137.365601 L42.3074921,127.181379 C42.3074921,125.20357 42.6369333,123.781244 43.296946,122.916633 C43.9561111,122.052579 45.0212857,121.619576 46.4930349,121.619576 C47.786219,121.619576 48.686673,122.014636 49.1941143,122.804476 C49.7015556,123.593479 49.9552762,124.790376 49.9552762,126.392934 L49.9552762,137.365601 L55.3582825,137.365601 L55.3582825,125.415608 C55.3582825,124.214247 55.2495048,123.118069 55.0347746,122.125956 C54.8189143,121.138586 54.4448317,120.298526 53.9113968,119.608567 L53.9113968,119.608567 Z M25.3765841,129.024153 L25.3014286,129.024153 L20.6598667,110.533357 L15.0664286,110.533357 L10.3480159,128.797608 L10.2725778,128.797608 L5.97288889,110.533357 L3.83693077e-13,110.533357 L7.19063492,137.365601 L13.2409397,137.365601 L17.7675079,119.10163 L17.8437937,119.10163 L22.4472127,137.365601 L28.3830889,137.365601 L35.6881524,110.533357 L29.829127,110.533357 L25.3765841,129.024153 Z" id="Logotype"></path><path d="M89.1685154,7.10542736e-15 C100.589686,0.00508802178 111.309511,4.43562432 119.371147,12.4763947 L119.371147,12.4763947 L119.777877,12.8875485 C127.580796,20.8802673 131.869082,31.3994903 131.865182,42.5745876 L131.865182,42.5745876 L131.859155,43.2769272 C131.471705,66.4099139 112.46441,85.116951 89.1685154,85.116951 L89.1685154,85.116951 L89.1503649,85.116951 L88.4808743,85.1114668 C81.5669733,85.0009219 74.7887686,83.2220074 68.7472744,79.9379102 L68.7472744,79.9379102 L46.1130967,85.8535835 L52.1705256,63.8088811 L51.8454653,63.2373875 C48.3204623,56.9265785 46.4690907,49.8176277 46.4715681,42.5403848 L46.4715681,42.5403848 L46.4775771,41.8380125 C46.864419,18.7039896 65.8689705,7.10542736e-15 89.1685154,7.10542736e-15 Z M89.1818446,7.18570009 L88.5957044,7.19044618 C69.2900836,7.50328483 53.6879939,23.2417245 53.6801293,42.5432114 L53.6801293,42.5432114 L53.6850413,43.1500385 C53.7925173,49.6173434 55.6606886,55.90141 59.1056989,61.3609773 L59.1056989,61.3609773 L59.9505456,62.6985617 L56.3644139,75.7465109 L69.7957465,72.2366239 L71.0923692,73.0023711 L71.6220335,73.3094456 C76.9431358,76.3326811 82.9912514,77.9288163 89.1549025,77.9320989 L89.1549025,77.9320989 L89.1685154,77.9320989 L89.7542009,77.9273521 C109.044979,77.6144635 124.647908,61.8735277 124.656333,42.5717609 L124.656333,42.5717609 L124.652698,42.0474224 C124.521564,32.7947406 120.847709,24.1152864 114.271438,17.5556538 L114.271438,17.5556538 L113.896918,17.1874605 C107.240632,10.7373959 98.4859352,7.18958416 89.1818446,7.18570009 L89.1818446,7.18570009 Z M74.1917229,24.4799265 C74.9127069,24.4799265 75.6348418,24.4783027 76.2657747,24.5040723 C77.0368191,24.5342282 77.8904343,24.5684963 78.7011817,26.2860121 C79.6635487,28.3250996 81.7669463,33.4252855 82.0373873,33.9409515 C82.3081159,34.4566175 82.4885058,35.058639 82.127726,35.7475643 C81.7669463,36.435119 81.5865565,36.8647035 81.04625,37.4669992 C80.5053681,38.0690207 79.9086718,38.8111301 79.4227412,39.2730638 C78.8798454,39.7870849 78.316235,40.3457915 78.9474556,41.3771235 C79.578964,42.409552 81.7511226,45.7853685 84.9685068,48.51859 C89.1033762,52.031753 92.5891873,53.1195587 93.6715265,53.6368695 C94.7541534,54.1525355 95.3853741,54.0664541 96.0168825,53.3772546 C96.6483908,52.6897 98.7212919,50.3674211 99.4428514,49.3360892 C100.164411,48.3036607 100.88597,48.4755493 101.878258,48.8193267 C102.870546,49.163104 108.19104,51.658368 109.273667,52.174034 C110.355719,52.6897 111.077566,52.9473959 111.348295,53.3772546 C111.618736,53.8087582 111.618736,55.8725186 110.716499,58.2803306 C109.814837,60.6884166 105.396005,63.0106955 103.411716,63.1825841 C101.42714,63.3544728 99.5665637,64.0379152 90.424509,60.6023352 C79.423892,56.4687831 72.4778753,45.7239601 71.9367057,45.0364055 C71.3961115,44.3477543 67.5172979,39.4449524 67.5172979,34.3705361 C67.5172979,29.2969422 70.3137723,26.8022264 71.3057727,25.7703462 C72.2974854,24.7381918 73.4701634,24.4799265 74.1917229,24.4799265 Z" id="Logo"></path></g></g></g></g></g></svg> 